G75*
%MOIN*%
%OFA0B0*%
%FSLAX24Y24*%
%IPPOS*%
%LPD*%
%AMOC8*
5,1,8,0,0,1.08239X$1,22.5*
%
%ADD10C,0.0740*%
%ADD11R,0.0600X0.0600*%
%ADD12C,0.0660*%
%ADD13R,0.0660X0.0660*%
%ADD14C,0.0760*%
%ADD15C,0.0100*%
D10*
X002160Y002160D03*
X002160Y003160D03*
X002160Y004160D03*
X002160Y005160D03*
X002160Y006160D03*
X002160Y007160D03*
X002160Y008160D03*
X002160Y009160D03*
X003160Y009160D03*
X003160Y008160D03*
X003160Y007160D03*
X003160Y006160D03*
X003160Y005160D03*
X003160Y004160D03*
X003160Y003160D03*
X003160Y002160D03*
X004160Y002160D03*
X004160Y003160D03*
X004160Y004160D03*
X004160Y005160D03*
X004160Y006160D03*
X004160Y007160D03*
X004160Y008160D03*
X004160Y009160D03*
X004160Y012160D03*
X003160Y012160D03*
X003160Y013160D03*
X003160Y014160D03*
X003160Y015160D03*
X003160Y016160D03*
X003160Y017160D03*
X003160Y018160D03*
X003160Y019160D03*
X003160Y020160D03*
X003160Y021160D03*
X003160Y022160D03*
X002160Y022160D03*
X002160Y021160D03*
X002160Y020160D03*
X002160Y019160D03*
X002160Y018160D03*
X002160Y017160D03*
X002160Y016160D03*
X002160Y015160D03*
X002160Y014160D03*
X002160Y013160D03*
X002160Y012160D03*
X001160Y012160D03*
X001160Y013160D03*
X001160Y014160D03*
X001160Y015160D03*
X001160Y016160D03*
X001160Y017160D03*
X001160Y018160D03*
X001160Y019160D03*
X001160Y020160D03*
X001160Y021160D03*
X001160Y022160D03*
X005160Y012160D03*
X006160Y012160D03*
X007160Y012160D03*
X007160Y013160D03*
X007160Y014160D03*
X007160Y015160D03*
X007160Y016160D03*
X007160Y017160D03*
X007160Y018160D03*
X007160Y019160D03*
X007160Y020160D03*
X007160Y021160D03*
X008160Y021160D03*
X008160Y020160D03*
X008160Y019160D03*
X008160Y018160D03*
X008160Y017160D03*
X008160Y016160D03*
X008160Y015160D03*
X008160Y014160D03*
X008160Y013160D03*
X008160Y012160D03*
X009160Y012160D03*
X009160Y013160D03*
X009160Y014160D03*
X009160Y015160D03*
X009160Y016160D03*
X009160Y017160D03*
X009160Y018160D03*
X009160Y019160D03*
X009160Y020160D03*
X009160Y021160D03*
X009160Y022160D03*
X010160Y022160D03*
X008160Y022160D03*
X008160Y009160D03*
X008160Y008160D03*
X008160Y007160D03*
X008160Y006160D03*
X008160Y005160D03*
X008160Y004160D03*
X008160Y003160D03*
X008160Y002160D03*
X007160Y002160D03*
X007160Y003160D03*
X007160Y004160D03*
X007160Y005160D03*
X007160Y006160D03*
X007160Y007160D03*
X007160Y008160D03*
X007160Y009160D03*
X009160Y009160D03*
X009160Y008160D03*
X009160Y007160D03*
X009160Y006160D03*
X009160Y005160D03*
X009160Y004160D03*
X009160Y003160D03*
X009160Y002160D03*
D11*
X001160Y009160D03*
D12*
X001160Y002160D03*
X001160Y003160D03*
X001160Y004160D03*
X001160Y005160D03*
X001160Y006160D03*
X001160Y007160D03*
X001160Y008160D03*
X010160Y008160D03*
X010160Y007160D03*
X010160Y006160D03*
X010160Y005160D03*
X010160Y004160D03*
X010160Y003160D03*
X010160Y002160D03*
D13*
X010160Y009160D03*
D14*
X010160Y013160D03*
X010160Y014160D03*
X010160Y015160D03*
X010160Y016160D03*
X010160Y017160D03*
X010160Y018160D03*
X010160Y019160D03*
X010160Y020160D03*
X010160Y021160D03*
X004160Y021160D03*
X004160Y020160D03*
X004160Y019160D03*
X004160Y018160D03*
X004160Y017160D03*
X004160Y016160D03*
X004160Y015160D03*
X004160Y014160D03*
X004160Y013160D03*
D15*
X003160Y013160D01*
X002160Y013160D01*
X001160Y013160D01*
X001160Y012160D02*
X002160Y012160D01*
X003160Y012160D01*
X004160Y012160D01*
X005160Y012160D01*
X006160Y012160D01*
X007160Y012160D01*
X006660Y011660D01*
X006660Y002660D01*
X007160Y002160D01*
X008160Y002160D01*
X009160Y002160D01*
X010160Y002160D01*
X010160Y003160D02*
X009160Y003160D01*
X008660Y003160D01*
X008660Y022160D01*
X008160Y022160D01*
X008660Y022160D02*
X009160Y022160D01*
X010160Y022160D01*
X010160Y021160D02*
X009160Y021160D01*
X009160Y020160D02*
X010160Y020160D01*
X010160Y019160D02*
X009160Y019160D01*
X009160Y018160D02*
X010160Y018160D01*
X010160Y017160D02*
X009160Y017160D01*
X009160Y016160D02*
X010160Y016160D01*
X010160Y015160D02*
X009160Y015160D01*
X009160Y014160D02*
X010160Y014160D01*
X010160Y013160D02*
X009160Y013160D01*
X008160Y013160D02*
X007160Y013160D01*
X007160Y012160D02*
X008160Y012160D01*
X008160Y014160D02*
X007160Y014160D01*
X007160Y015160D02*
X008160Y015160D01*
X008160Y016160D02*
X007160Y016160D01*
X007160Y017160D02*
X008160Y017160D01*
X008160Y018160D02*
X007160Y018160D01*
X007160Y019160D02*
X008160Y019160D01*
X008160Y020160D02*
X007160Y020160D01*
X007160Y021160D02*
X008160Y021160D01*
X004160Y021160D02*
X003160Y021160D01*
X002160Y021160D01*
X001160Y021160D01*
X001160Y020160D02*
X002160Y020160D01*
X003160Y020160D01*
X004160Y020160D01*
X004160Y019160D02*
X003160Y019160D01*
X002160Y019160D01*
X001160Y019160D01*
X001160Y018160D02*
X002160Y018160D01*
X003160Y018160D01*
X004160Y018160D01*
X004160Y017160D02*
X003160Y017160D01*
X002160Y017160D01*
X001160Y017160D01*
X001160Y016160D02*
X002160Y016160D01*
X003160Y016160D01*
X004160Y016160D01*
X004160Y015160D02*
X003160Y015160D01*
X002160Y015160D01*
X001160Y015160D01*
X001160Y014160D02*
X002160Y014160D01*
X003160Y014160D01*
X004160Y014160D01*
X004160Y009160D02*
X003160Y009160D01*
X002160Y009160D01*
X001160Y009160D01*
X001160Y008160D02*
X002160Y008160D01*
X003160Y008160D01*
X004160Y008160D01*
X004160Y007160D02*
X003160Y007160D01*
X002160Y007160D01*
X001160Y007160D01*
X001160Y006160D02*
X002160Y006160D01*
X003160Y006160D01*
X004160Y006160D01*
X004160Y005160D02*
X003160Y005160D01*
X002160Y005160D01*
X001160Y005160D01*
X001160Y004160D02*
X002160Y004160D01*
X003160Y004160D01*
X004160Y004160D01*
X004160Y003160D02*
X003160Y003160D01*
X002160Y003160D01*
X001160Y003160D01*
X000660Y003660D01*
X000660Y021660D01*
X001160Y022160D01*
X002160Y022160D01*
X003160Y022160D01*
X007160Y009160D02*
X008160Y009160D01*
X008160Y008160D02*
X007160Y008160D01*
X007160Y007160D02*
X008160Y007160D01*
X008160Y006160D02*
X007160Y006160D01*
X007160Y005160D02*
X008160Y005160D01*
X008160Y004160D02*
X007160Y004160D01*
X007160Y003160D02*
X008160Y003160D01*
X008660Y003160D01*
X009160Y004160D02*
X010160Y004160D01*
X010160Y005160D02*
X009160Y005160D01*
X009160Y006160D02*
X010160Y006160D01*
X010160Y007160D02*
X009160Y007160D01*
X009160Y008160D02*
X010160Y008160D01*
X010160Y009160D02*
X009160Y009160D01*
X004160Y002160D02*
X003160Y002160D01*
X002160Y002160D01*
X001160Y002160D01*
M02*
