%
M48
M72
T01C0.0394
T02C0.0400
%
T01
X4160Y13160
X10160Y13160
X4160Y14160
X10160Y14160
X4160Y15160
X10160Y15160
X4160Y16160
X10160Y16160
X4160Y17160
X10160Y17160
X4160Y18160
X10160Y18160
X4160Y19160
X10160Y19160
X4160Y20160
X10160Y20160
X4160Y21160
X10160Y21160
T02
X2160Y9160
X3160Y9160
X4160Y9160
X2160Y8160
X3160Y8160
X4160Y8160
X2160Y6160
X3160Y6160
X4160Y6160
X2160Y7160
X3160Y7160
X4160Y7160
X2160Y5160
X3160Y5160
X4160Y5160
X2160Y4160
X3160Y4160
X4160Y4160
X2160Y3160
X3160Y3160
X4160Y3160
X2160Y2160
X3160Y2160
X4160Y2160
X7160Y8160
X8160Y8160
X9160Y8160
X7160Y9160
X8160Y9160
X9160Y9160
X7160Y7160
X8160Y7160
X9160Y7160
X7160Y6160
X8160Y6160
X9160Y6160
X7160Y4160
X8160Y4160
X9160Y4160
X7160Y5160
X8160Y5160
X9160Y5160
X7160Y2160
X8160Y2160
X9160Y2160
X7160Y3160
X8160Y3160
X9160Y3160
X1160Y9160
X1160Y8160
X1160Y7160
X1160Y6160
X1160Y5160
X1160Y4160
X1160Y3160
X1160Y2160
X10160Y2160
X10160Y3160
X10160Y4160
X10160Y5160
X10160Y6160
X10160Y7160
X10160Y8160
X10160Y9160
X1160Y12160
X2160Y12160
X3160Y12160
X4160Y12160
X5160Y12160
X6160Y12160
X7160Y12160
X8160Y12160
X9160Y12160
X1160Y13160
X2160Y13160
X3160Y13160
X7160Y13160
X8160Y13160
X9160Y13160
X1160Y14160
X2160Y14160
X3160Y14160
X7160Y14160
X8160Y14160
X9160Y14160
X1160Y15160
X2160Y15160
X3160Y15160
X7160Y15160
X8160Y15160
X9160Y15160
X1160Y16160
X2160Y16160
X3160Y16160
X7160Y16160
X8160Y16160
X9160Y16160
X1160Y17160
X2160Y17160
X3160Y17160
X7160Y17160
X8160Y17160
X9160Y17160
X1160Y18160
X2160Y18160
X3160Y18160
X7160Y18160
X8160Y18160
X9160Y18160
X1160Y19160
X2160Y19160
X3160Y19160
X7160Y19160
X8160Y19160
X9160Y19160
X1160Y22160
X2160Y22160
X3160Y22160
X8160Y22160
X9160Y22160
X10160Y22160
X1160Y20160
X2160Y20160
X3160Y20160
X7160Y20160
X8160Y20160
X9160Y20160
X1160Y21160
X2160Y21160
X3160Y21160
X7160Y21160
X8160Y21160
X9160Y21160
M30
